<svg version="1.1" xmlns="http://www.w3.org/2000/svg" xmlns:xlink="http://www.w3.org/1999/xlink" width="697.0654296875" height="723"><defs/><g><text fill="#eeeeee" stroke="none" font-family="Arial" font-size="24px" font-style="normal" font-weight="normal" text-decoration="none" x="0" y="0">UNREGISTERED</text><text fill="#eeeeee" stroke="none" font-family="Arial" font-size="24px" font-style="normal" font-weight="normal" text-decoration="none" x="0" y="30">UNREGISTERED</text><text fill="#eeeeee" stroke="none" font-family="Arial" font-size="24px" font-style="normal" font-weight="normal" text-decoration="none" x="0" y="60">UNREGISTERED</text><text fill="#eeeeee" stroke="none" font-family="Arial" font-size="24px" font-style="normal" font-weight="normal" text-decoration="none" x="0" y="90">UNREGISTERED</text><text fill="#eeeeee" stroke="none" font-family="Arial" font-size="24px" font-style="normal" font-weight="normal" text-decoration="none" x="0" y="120">UNREGISTERED</text><text fill="#eeeeee" stroke="none" font-family="Arial" font-size="24px" font-style="normal" font-weight="normal" text-decoration="none" x="0" y="150">UNREGISTERED</text><text fill="#eeeeee" stroke="none" font-family="Arial" font-size="24px" font-style="normal" font-weight="normal" text-decoration="none" x="0" y="180">UNREGISTERED</text><text fill="#eeeeee" stroke="none" font-family="Arial" font-size="24px" font-style="normal" font-weight="normal" text-decoration="none" x="0" y="210">UNREGISTERED</text><text fill="#eeeeee" stroke="none" font-family="Arial" font-size="24px" font-style="normal" font-weight="normal" text-decoration="none" x="0" y="240">UNREGISTERED</text><text fill="#eeeeee" stroke="none" font-family="Arial" font-size="24px" font-style="normal" font-weight="normal" text-decoration="none" x="0" y="270">UNREGISTERED</text><text fill="#eeeeee" stroke="none" font-family="Arial" font-size="24px" font-style="normal" font-weight="normal" text-decoration="none" x="0" y="300">UNREGISTERED</text><text fill="#eeeeee" stroke="none" font-family="Arial" font-size="24px" font-style="normal" font-weight="normal" text-decoration="none" x="0" y="330">UNREGISTERED</text><text fill="#eeeeee" stroke="none" font-family="Arial" font-size="24px" font-style="normal" font-weight="normal" text-decoration="none" x="0" y="360">UNREGISTERED</text><text fill="#eeeeee" stroke="none" font-family="Arial" font-size="24px" font-style="normal" font-weight="normal" text-decoration="none" x="0" y="390">UNREGISTERED</text><text fill="#eeeeee" stroke="none" font-family="Arial" font-size="24px" font-style="normal" font-weight="normal" text-decoration="none" x="0" y="420">UNREGISTERED</text><text fill="#eeeeee" stroke="none" font-family="Arial" font-size="24px" font-style="normal" font-weight="normal" text-decoration="none" x="0" y="450">UNREGISTERED</text><text fill="#eeeeee" stroke="none" font-family="Arial" font-size="24px" font-style="normal" font-weight="normal" text-decoration="none" x="0" y="480">UNREGISTERED</text><text fill="#eeeeee" stroke="none" font-family="Arial" font-size="24px" font-style="normal" font-weight="normal" text-decoration="none" x="0" y="510">UNREGISTERED</text><text fill="#eeeeee" stroke="none" font-family="Arial" font-size="24px" font-style="normal" font-weight="normal" text-decoration="none" x="0" y="540">UNREGISTERED</text><text fill="#eeeeee" stroke="none" font-family="Arial" font-size="24px" font-style="normal" font-weight="normal" text-decoration="none" x="0" y="570">UNREGISTERED</text><text fill="#eeeeee" stroke="none" font-family="Arial" font-size="24px" font-style="normal" font-weight="normal" text-decoration="none" x="0" y="600">UNREGISTERED</text><text fill="#eeeeee" stroke="none" font-family="Arial" font-size="24px" font-style="normal" font-weight="normal" text-decoration="none" x="0" y="630">UNREGISTERED</text><text fill="#eeeeee" stroke="none" font-family="Arial" font-size="24px" font-style="normal" font-weight="normal" text-decoration="none" x="0" y="660">UNREGISTERED</text><text fill="#eeeeee" stroke="none" font-family="Arial" font-size="24px" font-style="normal" font-weight="normal" text-decoration="none" x="0" y="690">UNREGISTERED</text><text fill="#eeeeee" stroke="none" font-family="Arial" font-size="24px" font-style="normal" font-weight="normal" text-decoration="none" x="0" y="720">UNREGISTERED</text><text fill="#eeeeee" stroke="none" font-family="Arial" font-size="24px" font-style="normal" font-weight="normal" text-decoration="none" x="200" y="0">UNREGISTERED</text><text fill="#eeeeee" stroke="none" font-family="Arial" font-size="24px" font-style="normal" font-weight="normal" text-decoration="none" x="200" y="30">UNREGISTERED</text><text fill="#eeeeee" stroke="none" font-family="Arial" font-size="24px" font-style="normal" font-weight="normal" text-decoration="none" x="200" y="60">UNREGISTERED</text><text fill="#eeeeee" stroke="none" font-family="Arial" font-size="24px" font-style="normal" font-weight="normal" text-decoration="none" x="200" y="90">UNREGISTERED</text><text fill="#eeeeee" stroke="none" font-family="Arial" font-size="24px" font-style="normal" font-weight="normal" text-decoration="none" x="200" y="120">UNREGISTERED</text><text fill="#eeeeee" stroke="none" font-family="Arial" font-size="24px" font-style="normal" font-weight="normal" text-decoration="none" x="200" y="150">UNREGISTERED</text><text fill="#eeeeee" stroke="none" font-family="Arial" font-size="24px" font-style="normal" font-weight="normal" text-decoration="none" x="200" y="180">UNREGISTERED</text><text fill="#eeeeee" stroke="none" font-family="Arial" font-size="24px" font-style="normal" font-weight="normal" text-decoration="none" x="200" y="210">UNREGISTERED</text><text fill="#eeeeee" stroke="none" font-family="Arial" font-size="24px" font-style="normal" font-weight="normal" text-decoration="none" x="200" y="240">UNREGISTERED</text><text fill="#eeeeee" stroke="none" font-family="Arial" font-size="24px" font-style="normal" font-weight="normal" text-decoration="none" x="200" y="270">UNREGISTERED</text><text fill="#eeeeee" stroke="none" font-family="Arial" font-size="24px" font-style="normal" font-weight="normal" text-decoration="none" x="200" y="300">UNREGISTERED</text><text fill="#eeeeee" stroke="none" font-family="Arial" font-size="24px" font-style="normal" font-weight="normal" text-decoration="none" x="200" y="330">UNREGISTERED</text><text fill="#eeeeee" stroke="none" font-family="Arial" font-size="24px" font-style="normal" font-weight="normal" text-decoration="none" x="200" y="360">UNREGISTERED</text><text fill="#eeeeee" stroke="none" font-family="Arial" font-size="24px" font-style="normal" font-weight="normal" text-decoration="none" x="200" y="390">UNREGISTERED</text><text fill="#eeeeee" stroke="none" font-family="Arial" font-size="24px" font-style="normal" font-weight="normal" text-decoration="none" x="200" y="420">UNREGISTERED</text><text fill="#eeeeee" stroke="none" font-family="Arial" font-size="24px" font-style="normal" font-weight="normal" text-decoration="none" x="200" y="450">UNREGISTERED</text><text fill="#eeeeee" stroke="none" font-family="Arial" font-size="24px" font-style="normal" font-weight="normal" text-decoration="none" x="200" y="480">UNREGISTERED</text><text fill="#eeeeee" stroke="none" font-family="Arial" font-size="24px" font-style="normal" font-weight="normal" text-decoration="none" x="200" y="510">UNREGISTERED</text><text fill="#eeeeee" stroke="none" font-family="Arial" font-size="24px" font-style="normal" font-weight="normal" text-decoration="none" x="200" y="540">UNREGISTERED</text><text fill="#eeeeee" stroke="none" font-family="Arial" font-size="24px" font-style="normal" font-weight="normal" text-decoration="none" x="200" y="570">UNREGISTERED</text><text fill="#eeeeee" stroke="none" font-family="Arial" font-size="24px" font-style="normal" font-weight="normal" text-decoration="none" x="200" y="600">UNREGISTERED</text><text fill="#eeeeee" stroke="none" font-family="Arial" font-size="24px" font-style="normal" font-weight="normal" text-decoration="none" x="200" y="630">UNREGISTERED</text><text fill="#eeeeee" stroke="none" font-family="Arial" font-size="24px" font-style="normal" font-weight="normal" text-decoration="none" x="200" y="660">UNREGISTERED</text><text fill="#eeeeee" stroke="none" font-family="Arial" font-size="24px" font-style="normal" font-weight="normal" text-decoration="none" x="200" y="690">UNREGISTERED</text><text fill="#eeeeee" stroke="none" font-family="Arial" font-size="24px" font-style="normal" font-weight="normal" text-decoration="none" x="200" y="720">UNREGISTERED</text><text fill="#eeeeee" stroke="none" font-family="Arial" font-size="24px" font-style="normal" font-weight="normal" text-decoration="none" x="400" y="0">UNREGISTERED</text><text fill="#eeeeee" stroke="none" font-family="Arial" font-size="24px" font-style="normal" font-weight="normal" text-decoration="none" x="400" y="30">UNREGISTERED</text><text fill="#eeeeee" stroke="none" font-family="Arial" font-size="24px" font-style="normal" font-weight="normal" text-decoration="none" x="400" y="60">UNREGISTERED</text><text fill="#eeeeee" stroke="none" font-family="Arial" font-size="24px" font-style="normal" font-weight="normal" text-decoration="none" x="400" y="90">UNREGISTERED</text><text fill="#eeeeee" stroke="none" font-family="Arial" font-size="24px" font-style="normal" font-weight="normal" text-decoration="none" x="400" y="120">UNREGISTERED</text><text fill="#eeeeee" stroke="none" font-family="Arial" font-size="24px" font-style="normal" font-weight="normal" text-decoration="none" x="400" y="150">UNREGISTERED</text><text fill="#eeeeee" stroke="none" font-family="Arial" font-size="24px" font-style="normal" font-weight="normal" text-decoration="none" x="400" y="180">UNREGISTERED</text><text fill="#eeeeee" stroke="none" font-family="Arial" font-size="24px" font-style="normal" font-weight="normal" text-decoration="none" x="400" y="210">UNREGISTERED</text><text fill="#eeeeee" stroke="none" font-family="Arial" font-size="24px" font-style="normal" font-weight="normal" text-decoration="none" x="400" y="240">UNREGISTERED</text><text fill="#eeeeee" stroke="none" font-family="Arial" font-size="24px" font-style="normal" font-weight="normal" text-decoration="none" x="400" y="270">UNREGISTERED</text><text fill="#eeeeee" stroke="none" font-family="Arial" font-size="24px" font-style="normal" font-weight="normal" text-decoration="none" x="400" y="300">UNREGISTERED</text><text fill="#eeeeee" stroke="none" font-family="Arial" font-size="24px" font-style="normal" font-weight="normal" text-decoration="none" x="400" y="330">UNREGISTERED</text><text fill="#eeeeee" stroke="none" font-family="Arial" font-size="24px" font-style="normal" font-weight="normal" text-decoration="none" x="400" y="360">UNREGISTERED</text><text fill="#eeeeee" stroke="none" font-family="Arial" font-size="24px" font-style="normal" font-weight="normal" text-decoration="none" x="400" y="390">UNREGISTERED</text><text fill="#eeeeee" stroke="none" font-family="Arial" font-size="24px" font-style="normal" font-weight="normal" text-decoration="none" x="400" y="420">UNREGISTERED</text><text fill="#eeeeee" stroke="none" font-family="Arial" font-size="24px" font-style="normal" font-weight="normal" text-decoration="none" x="400" y="450">UNREGISTERED</text><text fill="#eeeeee" stroke="none" font-family="Arial" font-size="24px" font-style="normal" font-weight="normal" text-decoration="none" x="400" y="480">UNREGISTERED</text><text fill="#eeeeee" stroke="none" font-family="Arial" font-size="24px" font-style="normal" font-weight="normal" text-decoration="none" x="400" y="510">UNREGISTERED</text><text fill="#eeeeee" stroke="none" font-family="Arial" font-size="24px" font-style="normal" font-weight="normal" text-decoration="none" x="400" y="540">UNREGISTERED</text><text fill="#eeeeee" stroke="none" font-family="Arial" font-size="24px" font-style="normal" font-weight="normal" text-decoration="none" x="400" y="570">UNREGISTERED</text><text fill="#eeeeee" stroke="none" font-family="Arial" font-size="24px" font-style="normal" font-weight="normal" text-decoration="none" x="400" y="600">UNREGISTERED</text><text fill="#eeeeee" stroke="none" font-family="Arial" font-size="24px" font-style="normal" font-weight="normal" text-decoration="none" x="400" y="630">UNREGISTERED</text><text fill="#eeeeee" stroke="none" font-family="Arial" font-size="24px" font-style="normal" font-weight="normal" text-decoration="none" x="400" y="660">UNREGISTERED</text><text fill="#eeeeee" stroke="none" font-family="Arial" font-size="24px" font-style="normal" font-weight="normal" text-decoration="none" x="400" y="690">UNREGISTERED</text><text fill="#eeeeee" stroke="none" font-family="Arial" font-size="24px" font-style="normal" font-weight="normal" text-decoration="none" x="400" y="720">UNREGISTERED</text><text fill="#eeeeee" stroke="none" font-family="Arial" font-size="24px" font-style="normal" font-weight="normal" text-decoration="none" x="600" y="0">UNREGISTERED</text><text fill="#eeeeee" stroke="none" font-family="Arial" font-size="24px" font-style="normal" font-weight="normal" text-decoration="none" x="600" y="30">UNREGISTERED</text><text fill="#eeeeee" stroke="none" font-family="Arial" font-size="24px" font-style="normal" font-weight="normal" text-decoration="none" x="600" y="60">UNREGISTERED</text><text fill="#eeeeee" stroke="none" font-family="Arial" font-size="24px" font-style="normal" font-weight="normal" text-decoration="none" x="600" y="90">UNREGISTERED</text><text fill="#eeeeee" stroke="none" font-family="Arial" font-size="24px" font-style="normal" font-weight="normal" text-decoration="none" x="600" y="120">UNREGISTERED</text><text fill="#eeeeee" stroke="none" font-family="Arial" font-size="24px" font-style="normal" font-weight="normal" text-decoration="none" x="600" y="150">UNREGISTERED</text><text fill="#eeeeee" stroke="none" font-family="Arial" font-size="24px" font-style="normal" font-weight="normal" text-decoration="none" x="600" y="180">UNREGISTERED</text><text fill="#eeeeee" stroke="none" font-family="Arial" font-size="24px" font-style="normal" font-weight="normal" text-decoration="none" x="600" y="210">UNREGISTERED</text><text fill="#eeeeee" stroke="none" font-family="Arial" font-size="24px" font-style="normal" font-weight="normal" text-decoration="none" x="600" y="240">UNREGISTERED</text><text fill="#eeeeee" stroke="none" font-family="Arial" font-size="24px" font-style="normal" font-weight="normal" text-decoration="none" x="600" y="270">UNREGISTERED</text><text fill="#eeeeee" stroke="none" font-family="Arial" font-size="24px" font-style="normal" font-weight="normal" text-decoration="none" x="600" y="300">UNREGISTERED</text><text fill="#eeeeee" stroke="none" font-family="Arial" font-size="24px" font-style="normal" font-weight="normal" text-decoration="none" x="600" y="330">UNREGISTERED</text><text fill="#eeeeee" stroke="none" font-family="Arial" font-size="24px" font-style="normal" font-weight="normal" text-decoration="none" x="600" y="360">UNREGISTERED</text><text fill="#eeeeee" stroke="none" font-family="Arial" font-size="24px" font-style="normal" font-weight="normal" text-decoration="none" x="600" y="390">UNREGISTERED</text><text fill="#eeeeee" stroke="none" font-family="Arial" font-size="24px" font-style="normal" font-weight="normal" text-decoration="none" x="600" y="420">UNREGISTERED</text><text fill="#eeeeee" stroke="none" font-family="Arial" font-size="24px" font-style="normal" font-weight="normal" text-decoration="none" x="600" y="450">UNREGISTERED</text><text fill="#eeeeee" stroke="none" font-family="Arial" font-size="24px" font-style="normal" font-weight="normal" text-decoration="none" x="600" y="480">UNREGISTERED</text><text fill="#eeeeee" stroke="none" font-family="Arial" font-size="24px" font-style="normal" font-weight="normal" text-decoration="none" x="600" y="510">UNREGISTERED</text><text fill="#eeeeee" stroke="none" font-family="Arial" font-size="24px" font-style="normal" font-weight="normal" text-decoration="none" x="600" y="540">UNREGISTERED</text><text fill="#eeeeee" stroke="none" font-family="Arial" font-size="24px" font-style="normal" font-weight="normal" text-decoration="none" x="600" y="570">UNREGISTERED</text><text fill="#eeeeee" stroke="none" font-family="Arial" font-size="24px" font-style="normal" font-weight="normal" text-decoration="none" x="600" y="600">UNREGISTERED</text><text fill="#eeeeee" stroke="none" font-family="Arial" font-size="24px" font-style="normal" font-weight="normal" text-decoration="none" x="600" y="630">UNREGISTERED</text><text fill="#eeeeee" stroke="none" font-family="Arial" font-size="24px" font-style="normal" font-weight="normal" text-decoration="none" x="600" y="660">UNREGISTERED</text><text fill="#eeeeee" stroke="none" font-family="Arial" font-size="24px" font-style="normal" font-weight="normal" text-decoration="none" x="600" y="690">UNREGISTERED</text><text fill="#eeeeee" stroke="none" font-family="Arial" font-size="24px" font-style="normal" font-weight="normal" text-decoration="none" x="600" y="720">UNREGISTERED</text><g transform="translate(-206,-70) scale(1,1)"><rect fill="#C0C0C0" stroke="none" x="415" y="87" width="312" height="703" opacity="0.2"/></g><g transform="translate(-206,-70) scale(1,1)"><rect fill="#ffffff" stroke="none" x="408" y="80" width="312" height="703"/></g><g transform="translate(-206,-70) scale(1,1)"><path fill="none" stroke="#000000" d="M 408 80 L 720 80 L 720 783 L 408 783 L 408 80 Z Z" stroke-miterlimit="10"/></g><g transform="translate(-206,-70) scale(1,1)"><g><path fill="none" stroke="none"/><text fill="#000000" stroke="none" font-family="Arial" font-size="13px" font-style="normal" font-weight="bold" text-decoration="none" x="539.069580078125" y="98">Sistema</text></g></g><g transform="translate(-206,-70) scale(1,1)"><path fill="#ffffff" stroke="none" d="M 233.49162571022728 385.68 C 233.49162571022728 380.886167936 237.37746803517274 377 242.1708984375 377 C 246.96432883982726 377 250.85017116477272 380.886167936 250.85017116477272 385.68 C 250.85017116477272 390.473832064 246.96432883982726 394.36 242.1708984375 394.36 C 237.37746803517274 394.36 233.49162571022728 390.473832064 233.49162571022728 385.68 Z"/></g><g transform="translate(-206,-70) scale(1,1)"><path fill="none" stroke="#000000" d="M 233.49162571022728 385.68 C 233.49162571022728 380.886167936 237.37746803517274 377 242.1708984375 377 C 246.96432883982726 377 250.85017116477272 380.886167936 250.85017116477272 385.68 C 250.85017116477272 390.473832064 246.96432883982726 394.36 242.1708984375 394.36 C 237.37746803517274 394.36 233.49162571022728 390.473832064 233.49162571022728 385.68 Z" stroke-miterlimit="10"/></g><g transform="translate(-206,-70) scale(1,1)"><path fill="none" stroke="#000000" d="M 242.1708984375 394.36 L 242.1708984375 411.64" stroke-miterlimit="10"/></g><g transform="translate(-206,-70) scale(1,1)"><path fill="none" stroke="#000000" d="M 232.98108025568183 400.84 L 251.36071661931817 400.84" stroke-miterlimit="10"/></g><g transform="translate(-206,-70) scale(1,1)"><path fill="none" stroke="#000000" d="M 242.1708984375 411.64 L 229.40726207386365 429" stroke-miterlimit="10"/></g><g transform="translate(-206,-70) scale(1,1)"><path fill="none" stroke="#000000" d="M 242.1708984375 411.64 L 254.93453480113635 429" stroke-miterlimit="10"/></g><g transform="translate(-206,-70) scale(1,1)"><g><path fill="none" stroke="none"/><text fill="#000000" stroke="none" font-family="Arial" font-size="13px" font-style="normal" font-weight="bold" text-decoration="none" x="220.5" y="448">Cliente</text></g></g><g transform="translate(-206,-70) scale(1,1)"><path fill="#C0C0C0" stroke="none" d="M 487 264 C 487 245.7746016 529.3090864 231 581.5 231 C 633.6909136 231 676 245.7746016 676 264 C 676 282.2253984 633.6909136 297 581.5 297 C 529.3090864 297 487 282.2253984 487 264 Z" opacity="0.2"/></g><g transform="translate(-206,-70) scale(1,1)"><path fill="#ffffff" stroke="none" d="M 480 257 C 480 238.7746016 522.3090864 224 574.5 224 C 626.6909136 224 669 238.7746016 669 257 C 669 275.2253984 626.6909136 290 574.5 290 C 522.3090864 290 480 275.2253984 480 257 Z"/></g><g transform="translate(-206,-70) scale(1,1)"><path fill="none" stroke="#000000" d="M 480 257 C 480 238.7746016 522.3090864 224 574.5 224 C 626.6909136 224 669 238.7746016 669 257 C 669 275.2253984 626.6909136 290 574.5 290 C 522.3090864 290 480 275.2253984 480 257 Z" stroke-miterlimit="10"/></g><g transform="translate(-206,-70) scale(1,1)"><g><path fill="none" stroke="none"/><text fill="#000000" stroke="none" font-family="Arial" font-size="12px" font-style="normal" font-weight="bold" text-decoration="none" x="512.1533203125" y="262">Realiza Agendamento</text></g></g><g transform="translate(-206,-70) scale(1,1)"><path fill="#C0C0C0" stroke="none" d="M 479 403 C 479 383.1177472 522.2045168 367 575.5 367 C 628.7954832 367 672 383.1177472 672 403 C 672 422.8822528 628.7954832 439 575.5 439 C 522.2045168 439 479 422.8822528 479 403 Z" opacity="0.2"/></g><g transform="translate(-206,-70) scale(1,1)"><path fill="#ffffff" stroke="none" d="M 472 396 C 472 376.1177472 515.2045168 360 568.5 360 C 621.7954832 360 665 376.1177472 665 396 C 665 415.8822528 621.7954832 432 568.5 432 C 515.2045168 432 472 415.8822528 472 396 Z"/></g><g transform="translate(-206,-70) scale(1,1)"><path fill="none" stroke="#000000" d="M 472 396 C 472 376.1177472 515.2045168 360 568.5 360 C 621.7954832 360 665 376.1177472 665 396 C 665 415.8822528 621.7954832 432 568.5 432 C 515.2045168 432 472 415.8822528 472 396 Z" stroke-miterlimit="10"/></g><g transform="translate(-206,-70) scale(1,1)"><g><path fill="none" stroke="none"/><text fill="#000000" stroke="none" font-family="Arial" font-size="12px" font-style="normal" font-weight="bold" text-decoration="none" x="513.814453125" y="401">Realiza Pagamento</text></g></g><g transform="translate(-206,-70) scale(1,1)"><path fill="#C0C0C0" stroke="none" d="M 479 563 C 479 543.1177472 521.9806592 527 575 527 C 628.0193408 527 671 543.1177472 671 563 C 671 582.8822528 628.0193408 599 575 599 C 521.9806592 599 479 582.8822528 479 563 Z" opacity="0.2"/></g><g transform="translate(-206,-70) scale(1,1)"><path fill="#ffffff" stroke="none" d="M 472 556 C 472 536.1177472 514.9806592 520 568 520 C 621.0193408 520 664 536.1177472 664 556 C 664 575.8822528 621.0193408 592 568 592 C 514.9806592 592 472 575.8822528 472 556 Z"/></g><g transform="translate(-206,-70) scale(1,1)"><path fill="none" stroke="#000000" d="M 472 556 C 472 536.1177472 514.9806592 520 568 520 C 621.0193408 520 664 536.1177472 664 556 C 664 575.8822528 621.0193408 592 568 592 C 514.9806592 592 472 575.8822528 472 556 Z" stroke-miterlimit="10"/></g><g transform="translate(-206,-70) scale(1,1)"><g><path fill="none" stroke="none"/><text fill="#000000" stroke="none" font-family="Arial" font-size="11px" font-style="normal" font-weight="bold" text-decoration="none" x="526.435791015625" y="555.5">Confirmação de</text><text fill="#000000" stroke="none" font-family="Arial" font-size="11px" font-style="normal" font-weight="bold" text-decoration="none" x="532.24462890625" y="566">agendamento</text></g></g><g transform="translate(-206,-70) scale(1,1)"><path fill="#C0C0C0" stroke="none" d="M 479 695 C 479 677.3268864 521.9806592 663 575 663 C 628.0193408 663 671 677.3268864 671 695 C 671 712.6731136 628.0193408 727 575 727 C 521.9806592 727 479 712.6731136 479 695 Z" opacity="0.2"/></g><g transform="translate(-206,-70) scale(1,1)"><path fill="#ffffff" stroke="none" d="M 472 688 C 472 670.3268864 514.9806592 656 568 656 C 621.0193408 656 664 670.3268864 664 688 C 664 705.6731136 621.0193408 720 568 720 C 514.9806592 720 472 705.6731136 472 688 Z"/></g><g transform="translate(-206,-70) scale(1,1)"><path fill="none" stroke="#000000" d="M 472 688 C 472 670.3268864 514.9806592 656 568 656 C 621.0193408 656 664 670.3268864 664 688 C 664 705.6731136 621.0193408 720 568 720 C 514.9806592 720 472 705.6731136 472 688 Z" stroke-miterlimit="10"/></g><g transform="translate(-206,-70) scale(1,1)"><g><path fill="none" stroke="none"/><text fill="#000000" stroke="none" font-family="Arial" font-size="13px" font-style="normal" font-weight="bold" text-decoration="none" x="516.70458984375" y="693.5">Solicita Garantia</text></g></g><g transform="translate(-206,-70) scale(1,1)"><path fill="none" stroke="#000000" d="M 264 376 L 464 264" stroke-miterlimit="10"/></g><g transform="translate(-206,-70) scale(1,1)"><path fill="none" stroke="#000000" d="M 264 400 L 456 400" stroke-miterlimit="10"/></g><g transform="translate(-206,-70) scale(1,1)"><path fill="none" stroke="#000000" d="M 264 424 L 456 554" stroke-miterlimit="10"/></g><g transform="translate(-206,-70) scale(1,1)"><path fill="none" stroke="#000000" d="M 256 456 L 460 687" stroke-miterlimit="10"/></g><g transform="translate(-206,-70) scale(1,1)"><path fill="#ffffff" stroke="none" d="M 857.8534421164773 529.6800000000001 C 857.8534421164773 524.8861679360001 861.7392844414227 521 866.53271484375 521 C 871.3261452460773 521 875.2119875710227 524.8861679360001 875.2119875710227 529.6800000000001 C 875.2119875710227 534.473832064 871.3261452460773 538.36 866.53271484375 538.36 C 861.7392844414227 538.36 857.8534421164773 534.473832064 857.8534421164773 529.6800000000001 Z"/></g><g transform="translate(-206,-70) scale(1,1)"><path fill="none" stroke="#000000" d="M 857.8534421164773 529.6800000000001 C 857.8534421164773 524.8861679360001 861.7392844414227 521 866.53271484375 521 C 871.3261452460773 521 875.2119875710227 524.8861679360001 875.2119875710227 529.6800000000001 C 875.2119875710227 534.473832064 871.3261452460773 538.36 866.53271484375 538.36 C 861.7392844414227 538.36 857.8534421164773 534.473832064 857.8534421164773 529.6800000000001 Z" stroke-miterlimit="10"/></g><g transform="translate(-206,-70) scale(1,1)"><path fill="none" stroke="#000000" d="M 866.53271484375 538.36 L 866.53271484375 555.64" stroke-miterlimit="10"/></g><g transform="translate(-206,-70) scale(1,1)"><path fill="none" stroke="#000000" d="M 857.3428966619318 544.84 L 875.7225330255682 544.84" stroke-miterlimit="10"/></g><g transform="translate(-206,-70) scale(1,1)"><path fill="none" stroke="#000000" d="M 866.53271484375 555.64 L 853.7690784801136 573" stroke-miterlimit="10"/></g><g transform="translate(-206,-70) scale(1,1)"><path fill="none" stroke="#000000" d="M 866.53271484375 555.64 L 879.2963512073864 573" stroke-miterlimit="10"/></g><g transform="translate(-206,-70) scale(1,1)"><g><path fill="none" stroke="none"/><text fill="#000000" stroke="none" font-family="Arial" font-size="13px" font-style="normal" font-weight="bold" text-decoration="none" x="844.5" y="592">Oficina</text></g></g><g transform="translate(-206,-70) scale(1,1)"><path fill="none" stroke="#000000" d="M 672 552 L 848 552" stroke-miterlimit="10"/></g><g transform="translate(-206,-70) scale(1,1)"><path fill="none" stroke="#000000" d="M 248 360 L 464 152" stroke-miterlimit="10"/></g><g transform="translate(-206,-70) scale(1,1)"><path fill="#C0C0C0" stroke="none" d="M 471 147 C 471 127.1177472 513.9806592 111 567 111 C 620.0193408 111 663 127.1177472 663 147 C 663 166.8822528 620.0193408 183 567 183 C 513.9806592 183 471 166.8822528 471 147 Z" opacity="0.2"/></g><g transform="translate(-206,-70) scale(1,1)"><path fill="#ffffff" stroke="none" d="M 464 140 C 464 120.1177472 506.9806592 104 560 104 C 613.0193408 104 656 120.1177472 656 140 C 656 159.8822528 613.0193408 176 560 176 C 506.9806592 176 464 159.8822528 464 140 Z"/></g><g transform="translate(-206,-70) scale(1,1)"><path fill="none" stroke="#000000" d="M 464 140 C 464 120.1177472 506.9806592 104 560 104 C 613.0193408 104 656 120.1177472 656 140 C 656 159.8822528 613.0193408 176 560 176 C 506.9806592 176 464 159.8822528 464 140 Z" stroke-miterlimit="10"/></g><g transform="translate(-206,-70) scale(1,1)"><g><path fill="none" stroke="none"/><text fill="#000000" stroke="none" font-family="Arial" font-size="13px" font-style="normal" font-weight="bold" text-decoration="none" x="542.312255859375" y="145.5">Login</text></g></g><g transform="translate(-206,-70) scale(1,1)"><path fill="#ffffff" stroke="none" d="M 856.4093503196023 377.68 C 856.4093503196023 372.886167936 860.2951926445477 369 865.088623046875 369 C 869.8820534492023 369 873.7678957741477 372.886167936 873.7678957741477 377.68 C 873.7678957741477 382.473832064 869.8820534492023 386.36 865.088623046875 386.36 C 860.2951926445477 386.36 856.4093503196023 382.473832064 856.4093503196023 377.68 Z"/></g><g transform="translate(-206,-70) scale(1,1)"><path fill="none" stroke="#000000" d="M 856.4093503196023 377.68 C 856.4093503196023 372.886167936 860.2951926445477 369 865.088623046875 369 C 869.8820534492023 369 873.7678957741477 372.886167936 873.7678957741477 377.68 C 873.7678957741477 382.473832064 869.8820534492023 386.36 865.088623046875 386.36 C 860.2951926445477 386.36 856.4093503196023 382.473832064 856.4093503196023 377.68 Z" stroke-miterlimit="10"/></g><g transform="translate(-206,-70) scale(1,1)"><path fill="none" stroke="#000000" d="M 865.088623046875 386.36 L 865.088623046875 403.64" stroke-miterlimit="10"/></g><g transform="translate(-206,-70) scale(1,1)"><path fill="none" stroke="#000000" d="M 855.8988048650568 392.84 L 874.2784412286932 392.84" stroke-miterlimit="10"/></g><g transform="translate(-206,-70) scale(1,1)"><path fill="none" stroke="#000000" d="M 865.088623046875 403.64 L 852.3249866832386 421" stroke-miterlimit="10"/></g><g transform="translate(-206,-70) scale(1,1)"><path fill="none" stroke="#000000" d="M 865.088623046875 403.64 L 877.8522594105114 421" stroke-miterlimit="10"/></g><g transform="translate(-206,-70) scale(1,1)"><g><path fill="none" stroke="none"/><text fill="#000000" stroke="none" font-family="Arial" font-size="13px" font-style="normal" font-weight="bold" text-decoration="none" x="845.2236328125" y="440">Banco</text></g></g><g transform="translate(-206,-70) scale(1,1)"><path fill="none" stroke="#000000" d="M 672 400 L 846 400" stroke-miterlimit="10"/></g><g transform="translate(-206,-70) scale(1,1)"><path fill="none" stroke="#000000" d="M 848 560 L 676 690" stroke-miterlimit="10"/></g></g></svg>